<svg height="56" viewBox="0 0 56 56" width="56" xmlns="http://www.w3.org/2000/svg"><path d="m9.4257 43.75h23.6016c-.1641 3.1641-2.2031 5.1797-5.0156 5.1797-2.836 0-4.8516-2.0156-5.0391-5.1797h-3.6562c.1875 4.5 3.7265 8.4609 8.6953 8.4609 4.9453 0 8.4843-3.9609 8.6718-8.4609h9.8907c2.2263 0 3.5391-1.1484 3.5391-2.8359 0-2.3438-2.3673-4.4532-4.4063-6.5391-1.5469-1.6172-1.9688-4.9453-2.1328-7.6406-.1875-9.2344-2.5547-15.211-8.8125-17.461-.7735-3.0468-3.3047-5.4843-6.75-5.4843-3.4688 0-5.9766 2.4375-6.7735 5.4843-6.2343 2.25-8.625 8.2266-8.789 17.461-.1875 2.6953-.586 6.0234-2.1563 7.6406-2.0156 2.0859-4.4062 4.1953-4.4062 6.5391 0 1.6875 1.3359 2.8359 3.539 2.8359zm1.0313-3.5391v-.2812c.4219-.7031 1.8047-2.0625 3.0469-3.4453 1.664-1.875 2.4609-4.875 2.6718-9.4688.1875-10.2187 3.2344-13.5 7.2656-14.5781.586-.1406.8907-.4453.9141-1.0313.0938-2.4609 1.4766-4.1718 3.6563-4.1718 2.1562 0 3.5625 1.7109 3.6328 4.1718.0234.586.3515.8907.9375 1.0313 4.0078 1.0781 7.0547 4.3594 7.2656 14.5781.1875 4.5938.9844 7.5938 2.6719 9.4688 1.2187 1.3828 2.625 2.7422 3.0469 3.4453v.2812z"/></svg>